<svg xmlns="http://www.w3.org/2000/svg" xmlns:xlink="http://www.w3.org/1999/xlink" version="1.1" x="0px" y="0px" viewBox="0 0 90 112.5" enable-background="new 0 0 90 90" xml:space="preserve"><g><path d="M82.808,55.965c0,0,1.069-5.203-6.42-10.066c0,0,7.109-3.55,6.473-10.943c0,0-1.706-8.901-11.481-8.268   c0,0-2.839-0.107-5.38,2.431l-10.768,9.921l-5.123,4.929c0,0-2.269,1.782,0,3.922l14.948,13.716c0,0,3.063,4.328,9.726,3.355   C74.782,64.963,82.37,63.553,82.808,55.965z"/><g><path d="M8.193,35.796c0,0-1.07,5.203,6.419,10.067c0,0-7.108,3.55-6.472,10.942c0,0,1.706,8.9,11.481,8.268    c0,0,2.838,0.106,5.379-2.432l10.769-9.921l5.123-4.929c0,0,2.268-1.782,0-3.923L25.943,30.153c0,0-3.063-4.328-9.726-3.355    C16.218,26.798,8.631,28.208,8.193,35.796z"/></g></g><g><path d="M55.585,8.574c0,0-5.203-1.07-10.066,6.419c0,0-3.551-7.109-10.943-6.472c0,0-8.9,1.706-8.268,11.481   c0,0-0.107,2.838,2.432,5.379l9.921,10.768l4.929,5.123c0,0,1.782,2.269,3.923,0l13.716-14.948c0,0,4.328-3.063,3.355-9.726   C64.583,16.599,63.173,9.011,55.585,8.574z"/><g><path d="M35.416,83.188c0,0,5.203,1.07,10.067-6.419c0,0,3.55,7.108,10.942,6.472c0,0,8.9-1.706,8.268-11.481    c0,0,0.106-2.838-2.432-5.379l-9.921-10.769l-4.929-5.123c0,0-1.782-2.268-3.923,0L29.773,65.438c0,0-4.328,3.063-3.355,9.726    C26.418,75.163,27.828,82.75,35.416,83.188z"/></g></g><g><path d="M55.585,8.574c0,0-5.203-1.07-10.066,6.419c0,0-3.551-7.109-10.943-6.472c0,0-8.9,1.706-8.268,11.481   c0,0-0.107,2.838,2.432,5.379l9.921,10.768l4.929,5.123c0,0,1.782,2.269,3.923,0l13.716-14.948c0,0,4.328-3.063,3.355-9.726   C64.583,16.599,63.173,9.011,55.585,8.574z"/><g><path d="M35.416,83.188c0,0,5.203,1.07,10.067-6.419c0,0,3.55,7.108,10.942,6.472c0,0,8.9-1.706,8.268-11.481    c0,0,0.106-2.838-2.432-5.379l-9.921-10.769l-4.929-5.123c0,0-1.782-2.268-3.923,0L29.773,65.438c0,0-4.328,3.063-3.355,9.726    C26.418,75.163,27.828,82.75,35.416,83.188z"/></g></g><g><path d="M55.585,8.574c0,0-5.203-1.07-10.066,6.419c0,0-3.551-7.109-10.943-6.472c0,0-8.9,1.706-8.268,11.481   c0,0-0.107,2.838,2.432,5.379l9.921,10.768l4.929,5.123c0,0,1.782,2.269,3.923,0l13.716-14.948c0,0,4.328-3.063,3.355-9.726   C64.583,16.599,63.173,9.011,55.585,8.574z"/><g><path d="M35.416,83.188c0,0,5.203,1.07,10.067-6.419c0,0,3.55,7.108,10.942,6.472c0,0,8.9-1.706,8.268-11.481    c0,0,0.106-2.838-2.432-5.379l-9.921-10.769l-4.929-5.123c0,0-1.782-2.268-3.923,0L29.773,65.438c0,0-4.328,3.063-3.355,9.726    C26.418,75.163,27.828,82.75,35.416,83.188z"/></g></g><g><path d="M55.585,8.574c0,0-5.203-1.07-10.066,6.419c0,0-3.551-7.109-10.943-6.472c0,0-8.9,1.706-8.268,11.481   c0,0-0.107,2.838,2.432,5.379l9.921,10.768l4.929,5.123c0,0,1.782,2.269,3.923,0l13.716-14.948c0,0,4.328-3.063,3.355-9.726   C64.583,16.599,63.173,9.011,55.585,8.574z"/><g><path d="M35.416,83.188c0,0,5.203,1.07,10.067-6.419c0,0,3.55,7.108,10.942,6.472c0,0,8.9-1.706,8.268-11.481    c0,0,0.106-2.838-2.432-5.379l-9.921-10.769l-4.929-5.123c0,0-1.782-2.268-3.923,0L29.773,65.438c0,0-4.328,3.063-3.355,9.726    C26.418,75.163,27.828,82.75,35.416,83.188z"/></g></g><g><path d="M82.808,55.965c0,0,1.069-5.203-6.42-10.066c0,0,7.109-3.55,6.473-10.943c0,0-1.706-8.901-11.481-8.268   c0,0-2.839-0.107-5.38,2.431l-10.768,9.921l-5.123,4.929c0,0-2.269,1.782,0,3.922l14.948,13.716c0,0,3.063,4.328,9.726,3.355   C74.782,64.963,82.37,63.553,82.808,55.965z"/><g><path d="M8.193,35.796c0,0-1.07,5.203,6.419,10.067c0,0-7.108,3.55-6.472,10.942c0,0,1.706,8.9,11.481,8.268    c0,0,2.838,0.106,5.379-2.432l10.769-9.921l5.123-4.929c0,0,2.268-1.782,0-3.923L25.943,30.153c0,0-3.063-4.328-9.726-3.355    C16.218,26.798,8.631,28.208,8.193,35.796z"/></g></g><g><path d="M55.585,8.574c0,0-5.203-1.07-10.066,6.419c0,0-3.551-7.109-10.943-6.472c0,0-8.9,1.706-8.268,11.481   c0,0-0.107,2.838,2.432,5.379l9.921,10.768l4.929,5.123c0,0,1.782,2.269,3.923,0l13.716-14.948c0,0,4.328-3.063,3.355-9.726   C64.583,16.599,63.173,9.011,55.585,8.574z"/><g><path d="M35.416,83.188c0,0,5.203,1.07,10.067-6.419c0,0,3.55,7.108,10.942,6.472c0,0,8.9-1.706,8.268-11.481    c0,0,0.106-2.838-2.432-5.379l-9.921-10.769l-4.929-5.123c0,0-1.782-2.268-3.923,0L29.773,65.438c0,0-4.328,3.063-3.355,9.726    C26.418,75.163,27.828,82.75,35.416,83.188z"/></g></g><g><path d="M55.585,8.574c0,0-5.203-1.07-10.066,6.419c0,0-3.551-7.109-10.943-6.472c0,0-8.9,1.706-8.268,11.481   c0,0-0.107,2.838,2.432,5.379l9.921,10.768l4.929,5.123c0,0,1.782,2.269,3.923,0l13.716-14.948c0,0,4.328-3.063,3.355-9.726   C64.583,16.599,63.173,9.011,55.585,8.574z"/><g><path d="M35.416,83.188c0,0,5.203,1.07,10.067-6.419c0,0,3.55,7.108,10.942,6.472c0,0,8.9-1.706,8.268-11.481    c0,0,0.106-2.838-2.432-5.379l-9.921-10.769l-4.929-5.123c0,0-1.782-2.268-3.923,0L29.773,65.438c0,0-4.328,3.063-3.355,9.726    C26.418,75.163,27.828,82.75,35.416,83.188z"/></g></g><g><path d="M55.585,8.574c0,0-5.203-1.07-10.066,6.419c0,0-3.551-7.109-10.943-6.472c0,0-8.9,1.706-8.268,11.481   c0,0-0.107,2.838,2.432,5.379l9.921,10.768l4.929,5.123c0,0,1.782,2.269,3.923,0l13.716-14.948c0,0,4.328-3.063,3.355-9.726   C64.583,16.599,63.173,9.011,55.585,8.574z"/><g><path d="M35.416,83.188c0,0,5.203,1.07,10.067-6.419c0,0,3.55,7.108,10.942,6.472c0,0,8.9-1.706,8.268-11.481    c0,0,0.106-2.838-2.432-5.379l-9.921-10.769l-4.929-5.123c0,0-1.782-2.268-3.923,0L29.773,65.438c0,0-4.328,3.063-3.355,9.726    C26.418,75.163,27.828,82.75,35.416,83.188z"/></g></g><g><path d="M55.585,8.574c0,0-5.203-1.07-10.066,6.419c0,0-3.551-7.109-10.943-6.472c0,0-8.9,1.706-8.268,11.481   c0,0-0.107,2.838,2.432,5.379l9.921,10.768l4.929,5.123c0,0,1.782,2.269,3.923,0l13.716-14.948c0,0,4.328-3.063,3.355-9.726   C64.583,16.599,63.173,9.011,55.585,8.574z"/><g><path d="M35.416,83.188c0,0,5.203,1.07,10.067-6.419c0,0,3.55,7.108,10.942,6.472c0,0,8.9-1.706,8.268-11.481    c0,0,0.106-2.838-2.432-5.379l-9.921-10.769l-4.929-5.123c0,0-1.782-2.268-3.923,0L29.773,65.438c0,0-4.328,3.063-3.355,9.726    C26.418,75.163,27.828,82.75,35.416,83.188z"/></g></g><text x="0" y="105" fill="#000000" font-size="5px" font-weight="bold" font-family="'Helvetica Neue', Helvetica, Arial-Unicode, Arial, Sans-serif">Created by Jonathan Li</text><text x="0" y="110" fill="#000000" font-size="5px" font-weight="bold" font-family="'Helvetica Neue', Helvetica, Arial-Unicode, Arial, Sans-serif">from the Noun Project</text></svg>